<svg xmlns="http://www.w3.org/2000/svg" fill="none" viewBox="50 42 35 35">
<g filter="url(#filter0_d_270_5903)">
<path d="M67.4333 42L65.7789 42.0837L65.6473 42.0974L64.039 42.3418L63.9108 42.3692L63.8082 42.3948L62.9417 43.1195L62.9588 44.2492L63.8458 44.9466L64.4355 44.938H64.4611L64.4953 44.9295L65.9737 44.7022L67.5667 44.6218L68.0076 44.3826L68.4776 44.1877L68.4981 44.1176L68.5597 44.0852L68.6503 43.6015L68.7972 43.1041L68.7545 43.0426L68.7682 42.9742L68.4469 42.5948L68.1563 42.1743L68.0674 42.147L68.0384 42.1145L67.8042 42.0701L67.5667 42L67.5256 42.0171L67.4333 42ZM72.9522 42.8751L71.8276 42.9811L71.202 43.9211L71.5387 44.9996L72.0498 45.3397L73.3026 45.7994L74.5793 46.4147L74.9075 46.613L76.0304 46.7258L76.8268 45.9259L76.7055 44.803L76.2697 44.3689L75.8988 44.1433L75.786 44.0817L74.3708 43.3998L74.2529 43.3502L72.9522 42.8751ZM59.3166 44.1809L58.7303 44.3689L57.7664 44.9534L57.6621 45.0252L56.4162 45.9567L56.3187 46.037L55.7974 46.5105L55.3684 47.5565L55.912 48.5478L57.0229 48.7494L57.563 48.4538L58.0313 48.0282L59.1867 47.1633L60.0942 46.613L60.713 45.6678L60.3694 44.5911L59.3166 44.1809ZM79.4435 47.3702L78.4522 47.912L78.2506 49.0229L78.5462 49.563L78.9718 50.0313L79.8367 51.1867L80.3887 52.0942L81.3322 52.713L82.4089 52.3694L82.8191 51.3166L82.6311 50.7303L82.0466 49.7664L81.9748 49.6621L81.0433 48.4162L80.963 48.3187L80.4896 47.7974L79.4435 47.3702ZM53.9259 50.1732L52.8013 50.2945L52.3689 50.7303L52.1433 51.1012L52.0817 51.214L51.3998 52.6292L51.3502 52.7471L50.8751 54.0478L50.9811 55.1724L51.9211 55.798L52.9996 55.4613L53.3397 54.9502L53.7994 53.6974L54.413 52.4224L54.613 52.0942L54.7258 50.9696L53.9259 50.1732ZM83.8805 54.9417L82.7508 54.9588L82.0534 55.8458L82.062 56.4355V56.4611L82.0705 56.4953L82.2978 57.9737L82.3782 59.5667L82.4329 59.5632L82.8123 60.4776L83.8959 60.7972L84.8257 60.1563L85 59.5667V59.4333L84.9163 57.7789L84.9026 57.6473L84.6582 56.039L84.6308 55.9108L84.6052 55.8082L83.8805 54.9417ZM51.1041 58.2028L50.1743 58.8437L50 59.4333V59.5667L50.0837 61.2211L50.0974 61.3527L50.3418 62.961L50.3692 63.0892L50.3948 63.1918L51.1195 64.0583L52.2492 64.0412L52.9466 63.1542L52.938 62.5645V62.5389L52.9295 62.5047L52.7022 61.0263L52.6218 59.4333L52.5671 59.4368L52.1877 58.5241L51.1041 58.2028ZM83.0789 63.202L82.0004 63.5387L81.6603 64.0498L81.2006 65.3026L80.5853 66.5793L80.387 66.9075L80.2742 68.0304L81.0741 68.8268L82.197 68.7055L82.6311 68.2697L82.8567 67.8988L82.9183 67.786L83.6002 66.3708L83.6498 66.2529L84.1249 64.9522L84.0189 63.8276L83.0789 63.202ZM53.6678 66.287L52.5911 66.6306L52.1809 67.6834L52.3689 68.2697L52.9534 69.2336L53.0252 69.3379L53.9567 70.5838L54.037 70.6813L54.5105 71.2026L55.5565 71.6316L56.5478 71.088L56.7494 69.9771L56.4538 69.437L56.0282 68.9687L55.1633 67.8133L54.613 66.9058L53.6678 66.287ZM77.9771 70.2506L77.437 70.5462L76.9687 70.9718L75.8133 71.8367L74.9058 72.3887L74.287 73.3322L74.6306 74.4089L75.6834 74.8191L76.2697 74.6311L77.2336 74.0466L77.3379 73.9748L78.5838 73.0433L78.6813 72.963L79.2026 72.4896L79.6298 71.4435L79.088 70.4522L77.9771 70.2506ZM58.9696 72.2742L58.1732 73.0741L58.2945 74.197L58.7303 74.6311L59.1012 74.8567L59.214 74.9183L60.6292 75.6002L60.7471 75.6498L62.0478 76.1249L63.1724 76.0189L63.798 75.0789L63.4613 74.0004L62.9502 73.6603L61.6974 73.2006L60.4224 72.587L60.0942 72.387L58.9696 72.2742ZM71.1542 74.0534L70.5645 74.062H70.5389L70.5047 74.0705L69.0263 74.2978L67.4333 74.3782L67.4368 74.4329L66.5224 74.8123L66.2028 75.8959L66.8437 76.8257L67.4333 77H67.5667L69.2211 76.9163L69.3527 76.9026L70.961 76.6582L71.0892 76.6308L71.1918 76.6052L72.0583 75.8805L72.0412 74.7508L71.1542 74.0534Z" fill="white"/>
</g>
<g filter="url(#filter1_d_270_5903)">
<circle cx="67.5" cy="59.5" r="7" fill="white"/>
</g>
<defs>
<filter id="filter0_d_270_5903" x="0" y="0" width="135" height="135" filterUnits="userSpaceOnUse" color-interpolation-filters="sRGB">
<feFlood flood-opacity="0" result="BackgroundImageFix"/>
<feColorMatrix in="SourceAlpha" type="matrix" values="0 0 0 0 0 0 0 0 0 0 0 0 0 0 0 0 0 0 127 0" result="hardAlpha"/>
<feOffset dy="8"/>
<feGaussianBlur stdDeviation="25"/>
<feComposite in2="hardAlpha" operator="out"/>
<feColorMatrix type="matrix" values="0 0 0 0 0.0666667 0 0 0 0 0.792157 0 0 0 0 0.745098 0 0 0 0.35 0"/>
<feBlend mode="normal" in2="BackgroundImageFix" result="effect1_dropShadow_270_5903"/>
<feBlend mode="normal" in="SourceGraphic" in2="effect1_dropShadow_270_5903" result="shape"/>
</filter>
<filter id="filter1_d_270_5903" x="10.5" y="10.5" width="114" height="114" filterUnits="userSpaceOnUse" color-interpolation-filters="sRGB">
<feFlood flood-opacity="0" result="BackgroundImageFix"/>
<feColorMatrix in="SourceAlpha" type="matrix" values="0 0 0 0 0 0 0 0 0 0 0 0 0 0 0 0 0 0 127 0" result="hardAlpha"/>
<feOffset dy="8"/>
<feGaussianBlur stdDeviation="25"/>
<feComposite in2="hardAlpha" operator="out"/>
<feColorMatrix type="matrix" values="0 0 0 0 0.0666667 0 0 0 0 0.792157 0 0 0 0 0.745098 0 0 0 0.35 0"/>
<feBlend mode="normal" in2="BackgroundImageFix" result="effect1_dropShadow_270_5903"/>
<feBlend mode="normal" in="SourceGraphic" in2="effect1_dropShadow_270_5903" result="shape"/>
</filter>
</defs>
</svg>