<svg width="245" height="42" viewBox="0 0 245 42" fill="none" xmlns="http://www.w3.org/2000/svg">
<g>
<path d="M96.5817 0.0445569C99.0768 -0.0267331 101.567 -0.0124768 104.067 0.0873292C105.436 1.6462 104.2 4.23166 104.666 6.17075C105.778 6.84088 107.941 5.46735 108.858 6.78859C108.858 7.92448 108.863 10.1963 108.863 11.3321C107.874 12.5868 106.02 11.6411 104.652 11.9595C104.675 16.1799 104.471 20.424 104.718 24.6396C105.616 26.0987 107.375 25.5759 108.858 25.747C108.44 27.6813 109.4 29.4588 109.39 31.3456C105.274 31.9302 100.165 32.5338 97.6225 28.4227C95.6882 23.133 96.8953 17.4346 96.5341 11.9452C95.7119 11.931 94.0627 11.893 93.2405 11.874C93.1787 9.99665 93.1787 8.11933 93.25 6.24678C94.0722 6.22777 95.7119 6.18976 96.5341 6.17075C96.5864 4.12235 96.4818 2.08345 96.5817 0.0445569Z" fill="white"/>
<path d="M10.2108 5.9238C14.1888 5.36774 18.9747 6.7365 20.9708 10.4959C21.9309 12.0595 22.1162 13.9225 22.4394 15.6905C19.9205 15.7523 17.4063 15.7476 14.8922 15.6858C15.2819 12.8152 12.1737 10.7953 9.65474 12.4825C7.10731 16.1183 7.11206 21.4793 9.65474 25.1246C11.0568 25.847 12.8628 26.0371 14.1983 25.0866C14.7211 24.2786 14.7876 23.3233 14.9112 22.4013C17.4158 22.33 19.9252 22.3253 22.4346 22.387C22.0925 26.5551 19.2123 30.8658 14.8209 31.4219C10.1253 32.8191 4.61216 30.766 1.96493 26.6502C-0.715574 21.8785 -0.596762 15.7571 1.97443 10.9616C3.72341 8.01022 6.8364 6.25173 10.2108 5.9238Z" fill="white"/>
<path d="M37.3006 5.93312C42.1103 4.28394 39.2872 11.142 39.4583 13.2807C37.4527 13.5944 35.0098 12.8055 33.3892 14.3738C33.2228 19.8489 33.47 25.3335 33.2798 30.8133C31.1554 32.3342 27.7763 30.9179 25.2764 31.3836C25.2669 22.9952 25.2146 14.6067 25.2906 6.22302C27.8048 6.17075 30.3189 6.17075 32.8331 6.22778C32.8569 7.069 32.8996 8.7562 32.9186 9.60218C34.1828 8.19064 35.1952 6.10897 37.3006 5.93312Z" fill="white"/>
<path d="M81.0242 5.90917C85.0592 5.27706 89.3841 7.78647 90.52 11.774C92.9011 17.6055 92.6444 25.3 87.9155 29.8911C84.5364 32.4433 79.7885 32.3387 76.5899 29.4919C76.5139 33.2845 76.6945 37.0914 76.5567 40.8888C74.0377 40.9363 71.5141 40.9363 68.9999 40.884C68.9191 30.2761 69.0617 19.6634 68.9524 9.06019C68.9144 8.13342 67.9733 6.88823 69.095 6.27513C70.8344 6.26563 74.3182 6.24185 76.0624 6.23234C74.7364 10.2151 76.338 8.46135 77.2078 7.78172C78.2866 6.83119 79.6839 6.37018 81.0242 5.90917ZM78.6336 12.0401C77.8779 12.349 77.222 12.8386 76.6707 13.4326C76.3998 16.9971 76.6137 20.5901 76.666 24.1594C77.8779 25.5852 79.836 26.1935 81.6848 25.6042C85.2255 22.7526 84.4318 17.2443 83.1486 13.4421C82.0555 12.2112 80.3398 11.3225 78.6336 12.0401Z" fill="white"/>
<path d="M120.942 5.92357C125.391 5.10611 130.21 7.18778 132.7 10.9329C135.794 16.3367 135.604 23.8411 131.26 28.5463C125.975 33.6031 115.847 32.8664 112.264 26.1509C110.04 21.6549 110.063 15.9755 112.24 11.4414C114.013 8.2809 117.354 6.28002 120.942 5.92357ZM121.413 12.0403C120.134 12.6153 118.794 13.5944 118.884 15.2293C118.086 18.1664 117.991 21.7547 119.721 24.3924C121.612 26.8971 126.427 25.6994 126.498 22.3726C127.453 19.4497 127.045 16.2559 125.937 13.4375C124.816 12.2304 123.124 11.3036 121.413 12.0403Z" fill="white"/>
<path d="M151.37 5.91908C155.172 5.14915 159.354 7.72033 160.048 11.5937C160.452 18.1762 160.181 24.7872 160.215 31.3839C157.686 31.4314 155.167 31.4314 152.648 31.3791C152.558 25.6902 152.72 19.9965 152.606 14.3075C152.035 11.4037 147.924 11.147 146.028 12.9483C145.809 18.9034 146.17 24.8727 145.909 30.823C143.766 32.3059 140.415 30.9324 137.915 31.3839C137.906 22.9954 137.853 14.6069 137.929 6.22324C140.439 6.17096 142.953 6.17097 145.472 6.228C145.491 7.06922 145.534 8.75166 145.557 9.59288C147.168 7.90568 149.032 6.41336 151.37 5.91908Z" fill="white"/>
<path d="M173.703 5.92348C177.002 5.42445 180.543 6.39874 183.147 8.48992C186.203 11.7835 186.778 16.5409 186.322 20.8516C186.189 20.9752 185.927 21.2223 185.794 21.3506C181.227 21.555 176.664 21.2936 172.102 21.4504C171.974 23.2137 173.314 24.7298 174.953 25.2288C177.91 26.7211 181.037 25.0054 183.931 24.283C184.725 25.7801 185.257 27.415 185.856 29.0072C180.97 31.9491 174.359 32.9614 169.269 29.972C165.291 27.5148 163.452 22.6386 164.027 18.0855C163.737 12.4061 167.72 6.3132 173.703 5.92348ZM174.15 11.9926C172.948 13.0335 171.788 14.4498 172.121 16.1607C174.345 16.27 176.565 16.1797 178.808 16.1655C178.708 13.7369 177.254 10.6999 174.15 11.9926Z" fill="white"/>
<path d="M231.685 5.92346C234.384 5.35789 237.122 6.14209 239.612 7.16391C242.136 8.25703 244.56 10.7997 243.894 13.7939C241.385 13.8557 238.885 13.8462 236.385 13.7701C236.423 10.6048 231.518 10.0535 230.582 12.8861C230.15 14.7492 232.326 15.5381 233.757 15.8898C237.302 16.7215 241.998 17.4202 243.714 21.0845C245.482 24.6917 243.153 29.0404 239.622 30.4615C233.995 33.2798 225.226 31.9063 222.645 25.552L222.488 23.3372C224.237 23.3467 227.73 23.3657 229.479 23.3753C229.57 26.5358 234.109 27.743 236.181 25.5948C237.369 24.8391 236.456 23.2137 235.682 22.496C232.835 21.1035 229.456 21.3174 226.747 19.5494C223.657 18.423 222.156 14.4117 223.515 11.4936C224.551 8.00513 228.282 6.21813 231.685 5.92346Z" fill="white"/>
<path d="M42.3398 6.23228C45.0061 6.23228 47.6913 6.06595 50.3623 6.27031C51.8167 10.5525 52.905 14.9867 53.9173 19.4019C54.0932 19.5635 54.4401 19.8819 54.616 20.0435C55.1958 16.5741 56.5883 13.29 57.4106 9.86333C57.9381 8.69893 57.8145 7.26837 58.6177 6.25606C61.284 6.18952 63.955 6.12773 66.626 6.23228C66.7638 7.71987 65.8133 8.97933 65.4758 10.3814C63.974 14.0409 62.8429 17.8335 61.5501 21.5644C58.9694 27.4577 58.1805 34.1922 54.174 39.4059C51.4079 41.1549 47.3206 42.3621 44.3882 40.3755C44.6211 38.655 45.0156 36.9725 45.3388 35.2758C48.2712 36.2549 50.1247 33.812 50.8709 31.3977C48.043 23.993 45.8663 16.3602 43.0005 8.96982C42.7296 8.06682 42.3684 7.18282 42.3398 6.23228Z" fill="white"/>
<path d="M187.795 6.22787C189.558 6.23738 193.085 6.25164 194.848 6.25639C195.86 9.04145 195.808 12.0784 196.621 14.9252C197.324 16.6362 196.787 19.1599 198.165 20.5049C198.869 15.9661 200.641 11.6649 201.654 7.19741C201.982 4.88761 205.366 6.88848 206.711 6.26113C208.122 10.9473 209.767 15.6524 210.684 20.4669L211.026 20.3671C212.295 15.738 212.399 10.6859 214.039 6.25639C216.183 6.6271 219.11 5.37715 220.94 6.75067C219.039 14.3264 217.361 21.9592 215.503 29.5445C215.341 30.1766 215.313 30.88 214.809 31.3552C212.789 31.3695 210.788 31.5358 208.787 31.341C206.986 27.8763 206.687 23.9268 205.052 20.3956C204.771 19.7064 205.299 18.1286 204.073 18.6276C203.317 21.3176 202.604 24.0266 201.654 26.6596C200.908 28.1091 201.273 30.1338 200.071 31.341C197.899 31.3837 195.746 31.5168 193.593 31.3457C191.83 22.9335 189.682 14.6116 187.795 6.22787Z" fill="white"/>
</g>
</svg>
