<svg width="223" height="45" viewBox="0 0 223 45" fill="none" xmlns="http://www.w3.org/2000/svg">
<path d="M188.656 9.35123C189.963 8.8298 191.396 8.78039 192.787 8.78949C192.788 10.3031 192.787 11.8166 192.787 13.3315C191.286 13.3172 189.721 13.3718 188.347 14.0453C189.134 15.3157 189.481 16.8137 189.502 18.2974C189.593 20.426 188.674 22.513 187.234 24.0551C185.927 25.466 184.189 26.4308 182.355 26.9782C179.498 27.8221 176.455 27.7701 173.524 27.4255C172.39 27.2565 171.294 26.9041 170.223 26.5036C169.75 26.7117 169.245 26.9899 169.052 27.4984C168.884 27.9639 168.91 28.6439 169.435 28.8676C170.139 29.1849 170.925 29.2265 171.683 29.3071C175.679 29.6127 179.694 29.4202 183.69 29.7102C185.785 29.8714 187.934 30.1094 189.858 31.0079C191.106 31.5852 192.174 32.6216 192.596 33.9492C193.239 35.9933 192.987 38.4041 191.6 40.0958C190.36 41.6301 188.506 42.5104 186.657 43.0878C183.966 43.907 181.142 44.1735 178.341 44.2749C175.215 44.366 172.042 44.2827 169.003 43.4805C167.287 43.0136 165.576 42.2933 164.292 41.0307C163.412 40.1699 162.814 39.0256 162.64 37.8059C162.471 36.6889 162.57 35.4823 163.177 34.5044C163.843 33.4031 164.979 32.6957 166.128 32.1769C165.42 31.7335 164.752 31.1639 164.406 30.3876C163.882 29.1992 164.013 27.7571 164.706 26.6623C165.301 25.6987 166.222 24.9953 167.168 24.3984C166.171 23.4531 165.22 22.405 164.687 21.1203C163.91 19.2336 163.992 17.0634 164.638 15.1506C165.371 13.0155 167.11 11.342 169.138 10.4071C172.117 9.01445 175.497 8.85581 178.732 9.04566C181.222 9.16658 183.698 9.84925 185.809 11.1912C186.692 10.4864 187.59 9.76343 188.656 9.35123ZM174.368 13.3159C172.893 13.5486 171.376 13.9972 170.244 15.0167C168.791 16.3014 168.5 18.5821 169.329 20.2881C169.937 21.513 171.157 22.3036 172.411 22.76C174.428 23.47 176.617 23.6286 178.733 23.3829C180.261 23.1865 181.829 22.7899 183.072 21.8394C185.408 20.1438 185.336 16.1128 182.886 14.5525C181.748 13.7723 180.37 13.4459 179.021 13.2704C177.477 13.0909 175.908 13.0857 174.368 13.3159ZM170.691 33.9271C169.685 34.3354 168.622 34.7372 167.847 35.5278C167.223 36.1467 167.111 37.2208 167.665 37.919C168.334 38.772 169.406 39.1556 170.412 39.4547C173.207 40.2141 176.136 40.205 179.007 40.084C181.125 39.9683 183.263 39.7694 185.296 39.1348C186.197 38.8306 187.131 38.4431 187.757 37.698C188.222 37.1545 188.326 36.3353 188.015 35.6942C187.679 35.0987 186.967 34.8932 186.349 34.732C184.751 34.3718 183.106 34.3068 181.478 34.2158C178.088 34.0753 174.697 33.9687 171.308 33.8348C171.095 33.8192 170.882 33.8348 170.691 33.9271Z" fill="#F5F5F3"/>
<path d="M124.766 0.0616841C126.586 0.0590835 128.404 0.0603835 130.224 0.0603835C130.225 1.87562 130.225 3.69085 130.224 5.50608C128.404 5.50478 126.586 5.50608 124.768 5.50478C124.765 3.69085 124.765 1.87562 124.766 0.0616841Z" fill="#F5F5F3"/>
<path d="M146.069 9.39936C148.046 8.89744 150.124 8.87924 152.136 9.17701C154.201 9.49429 156.273 10.2719 157.776 11.7659C159.056 13.0168 159.807 14.7267 160.09 16.4756C160.344 17.9398 160.246 19.43 160.266 20.9084C160.266 25.7976 160.267 30.6867 160.266 35.5746C158.639 35.5759 157.012 35.5759 155.387 35.5746C155.384 30.1172 155.39 24.6611 155.384 19.2037C155.375 17.8059 155.093 16.3313 154.189 15.2195C153.319 14.1338 151.949 13.5838 150.6 13.3926C148.078 12.9934 145.48 13.6462 143.311 14.9452C141.915 15.7618 140.657 16.7994 139.535 17.9593C139.533 23.8315 139.535 29.7037 139.534 35.5746C137.907 35.5759 136.281 35.5759 134.655 35.5746C134.654 26.9639 134.654 18.352 134.655 9.74004C136.281 9.73874 137.907 9.73874 139.533 9.74004C139.535 10.7517 139.533 11.7633 139.534 12.775C141.466 11.2458 143.662 9.99621 146.069 9.39936Z" fill="#F5F5F3"/>
<path d="M96.6212 9.73877C104.973 9.74007 113.327 9.73747 121.68 9.74007C121.642 10.7751 121.601 11.8102 121.559 12.8439C115.526 18.9905 109.486 25.1292 103.455 31.2758C109.667 31.2758 115.88 31.2745 122.092 31.2771C122.093 32.71 122.093 34.1417 122.092 35.5759C113.271 35.5759 104.448 35.5772 95.6254 35.5746C95.6437 34.5227 95.5902 33.4642 95.6515 32.4162C101.682 26.2813 107.739 20.1699 113.778 14.0415C108.059 14.0363 102.339 14.0402 96.6212 14.0389C96.6186 12.606 96.6186 11.1717 96.6212 9.73877Z" fill="#F5F5F3"/>
<path d="M125.1 9.73877C126.725 9.73877 128.352 9.73877 129.977 9.74007C129.98 18.352 129.978 26.964 129.977 35.5759C128.352 35.5759 126.725 35.5759 125.1 35.5759C125.097 26.964 125.097 18.352 125.1 9.73877Z" fill="#F5F5F3"/>
<path d="M0.537109 0.572753C2.50654 0.571452 4.47467 0.571452 6.44279 0.572753C6.4454 4.45938 6.44149 8.346 6.4454 12.2326C8.05379 11.0637 9.74038 9.93368 11.6655 9.36155C14.1002 8.63077 16.7109 8.57486 19.2082 8.98836C22.3299 9.51628 25.3042 11.1417 27.228 13.6799C29.2835 16.3338 30.0968 19.7848 29.9013 23.0967C29.7566 26.1329 28.6996 29.1744 26.6741 31.4772C24.5091 33.9868 21.3184 35.5134 18.0339 35.8385C15.2381 36.1115 12.3276 35.7058 9.81728 34.4094C8.5191 33.7502 7.35126 32.8516 6.34504 31.8023C6.34634 32.8919 6.34634 33.9816 6.34634 35.0713C4.4095 35.0713 2.47395 35.0713 0.537109 35.0713C0.537109 23.5713 0.537109 12.0714 0.537109 0.572753ZM10.0232 14.8502C8.7107 15.4678 7.55589 16.3585 6.44279 17.2778C6.45192 20.5871 6.42845 23.8964 6.45452 27.2044C8.04075 28.4124 9.65436 29.662 11.569 30.303C14.5629 31.3186 18.1043 31.0507 20.6967 29.1536C22.2934 27.9989 23.383 26.2097 23.7441 24.2826C24.2002 21.8809 23.8405 19.2322 22.3625 17.231C20.9861 15.3417 18.756 14.1974 16.4646 13.8788C14.2853 13.5837 12.0109 13.8983 10.0232 14.8502Z" fill="#F5F5F3"/>
<path d="M37.1295 11.3456C40.0165 9.25475 43.7077 8.55649 47.2165 8.77234C50.1543 8.93748 53.143 9.77748 55.4591 11.6486C57.6241 13.3741 59.0161 15.9123 59.6808 18.5676C60.1331 20.3295 60.3052 22.1525 60.3091 23.9691C52.8458 23.9717 45.3813 23.9678 37.9168 23.9704C38.1748 25.8571 38.9321 27.7452 40.3723 29.0416C41.9703 30.5096 44.1848 31.0935 46.3119 31.165C48.3622 31.178 50.5023 30.6097 52.0495 29.2132C52.606 28.7152 53.0518 28.1001 53.3646 27.424C55.5243 27.4253 57.684 27.4188 59.8451 27.4266C59.3589 29.2704 58.2158 30.8815 56.8551 32.1922C54.5872 34.3611 51.5099 35.5483 48.4078 35.8292C45.002 36.1348 41.4307 35.6783 38.4081 34.0048C36.1832 32.7826 34.352 30.8594 33.2715 28.5643C31.9211 25.718 31.6305 22.436 32.187 19.3556C32.7618 16.1997 34.494 13.2207 37.1295 11.3456ZM41.0032 14.8201C39.4561 15.8733 38.5346 17.6196 38.107 19.4024C43.4132 19.4024 48.7193 19.4037 54.0241 19.4011C53.6865 17.7666 52.9319 16.1477 51.592 15.097C50.1139 13.9125 48.1667 13.5302 46.3132 13.4899C44.4741 13.4404 42.5399 13.7486 41.0032 14.8201Z" fill="#F5F5F3"/>
<path d="M74.841 9.41583C77.251 8.61354 79.8786 8.55503 82.3629 9.01664C84.4444 9.41843 86.4621 10.5068 87.6534 12.2986C89.1862 14.5391 89.3765 17.3568 89.3074 19.9873C89.3074 25.0156 89.3074 30.0426 89.3074 35.0709C87.3406 35.0709 85.3751 35.0709 83.4082 35.0709C83.403 30.2546 83.4187 25.4382 83.4004 20.6219C83.3535 18.8444 83.2206 16.9173 82.127 15.4337C81.2967 14.3063 79.8604 13.8408 78.5088 13.7849C76.5563 13.7134 74.5243 13.9604 72.7921 14.9148C71.6282 15.5429 70.6832 16.4973 69.8608 17.5181C69.8634 23.3682 69.8608 29.2195 69.8621 35.0696C67.8965 35.0709 65.9297 35.0722 63.9629 35.0696C63.9642 26.5747 63.9642 18.0811 63.9629 9.58617C65.8997 9.58357 67.8353 9.58487 69.7721 9.58487C69.7721 10.6407 69.7721 11.6953 69.7721 12.7511C71.2124 11.3156 72.8859 10.0517 74.841 9.41583Z" fill="#F5F5F3"/>
<path d="M200.129 11.4837C202.383 9.67494 205.314 8.99098 208.145 8.79463C210.704 8.6516 213.303 8.74652 215.807 9.33686C217.713 9.80367 219.635 10.6515 220.892 12.2118C221.815 13.3353 222.281 14.7683 222.425 16.1999C222.55 17.456 222.501 18.7212 222.513 19.9825C222.518 23.8431 222.502 27.7037 222.52 31.5644C222.562 32.7359 222.535 33.9569 222.984 35.0609C220.968 35.0843 218.953 35.0661 216.938 35.07C216.753 34.2287 216.617 33.3744 216.599 32.511C214.528 33.7281 212.337 34.7826 209.995 35.3587C207.079 36.0777 203.944 36.1727 201.069 35.2247C199.246 34.6305 197.487 33.5512 196.488 31.8725C195.382 30.0001 195.27 27.6192 196.009 25.5959C196.77 23.5662 198.524 22.0851 200.415 21.1255C202.591 20.0059 204.983 19.3805 207.378 18.9279C210.424 18.3623 213.516 18.1192 216.607 17.9332C216.585 17.179 216.702 16.3767 216.364 15.672C215.966 14.8242 215.101 14.3183 214.244 14.0323C212.784 13.5512 211.226 13.477 209.701 13.4888C208.09 13.5239 206.412 13.6786 204.97 14.4575C204.041 14.9451 203.344 15.8293 203.108 16.8514C201.06 16.8501 199.014 16.8527 196.966 16.8501C197.38 14.7761 198.454 12.8061 200.129 11.4837ZM206.585 23.7092C205.378 24.0512 204.148 24.4751 203.178 25.2969C201.794 26.4307 201.631 28.6959 202.731 30.0716C203.667 31.1613 205.216 31.3914 206.579 31.3537C210.172 31.3082 213.591 29.9 216.607 28.0366C216.607 26.0953 216.604 24.1539 216.607 22.2125C213.226 22.3556 209.858 22.8484 206.585 23.7092Z" fill="#F5F5F3"/>
</svg>
