<svg width="231" height="56" viewBox="0 0 231 56" fill="none" xmlns="http://www.w3.org/2000/svg">
<g>
<g clipPath="url(#clip0_270_9840)">
<path d="M24.6571 0H24.8573C25.5062 0.192825 26.1114 0.502268 26.7235 0.788619C28.5137 1.66614 30.2683 2.6141 32.0183 3.5713C30.8056 4.83332 29.5573 6.05608 28.3239 7.29616C27.7831 7.91043 27.1331 8.41501 26.5981 9.0339C26.1528 9.54771 25.5948 9.94837 25.1576 10.4703C24.6813 11.0314 24.083 11.4725 23.6043 12.0325C23.1579 12.5463 22.6091 12.9574 22.1662 13.4735C21.8636 13.8222 21.5219 14.1328 21.1813 14.4422C20.6589 14.9191 20.2528 15.5207 19.6752 15.9352C19.3174 16.1061 18.8975 16.0379 18.5143 16.0968C18.9722 16.1811 19.4382 16.1615 19.9007 16.1557C21.6289 16.1615 23.3581 16.158 25.0874 16.158C25.3002 16.1499 25.5016 16.2261 25.7006 16.2931C23.3098 16.2943 20.9178 16.3093 18.527 16.285C12.5142 24.8767 6.51759 33.4799 0.507143 42.0751C0.327658 41.7483 0.343765 41.3557 0.291991 40.9955C0.0676344 37.9969 0.043473 34.989 0.0204621 31.9835C0.0319675 28.3383 -0.0129037 24.6931 0.0630323 21.0491C0.5221 20.7142 0.890274 20.2778 1.29642 19.8852C6.51529 14.6547 11.725 9.41493 16.945 4.18672C17.0589 4.10243 17.0589 3.96272 17.06 3.83571C18.9976 2.76305 20.9408 1.69963 22.9301 0.725113C23.495 0.459546 24.0565 0.175505 24.6571 0Z" fill="white"/>
<path d="M32.0176 3.57129C34.3877 4.87372 36.7395 6.21079 39.0774 7.57096C36.7579 9.98069 34.3578 12.3108 32.0119 14.6951C31.0443 15.6869 30.0364 16.6418 29.0837 17.6463C28.91 18.0482 29.0251 18.5262 28.9457 18.9545C28.7685 18.0886 28.9583 17.1995 28.8306 16.3289L28.7432 16.2943L28.7156 16.2919C27.7111 16.2977 26.7044 16.3 25.7 16.2931C25.5009 16.2261 25.2996 16.1499 25.0867 16.158C23.3575 16.158 21.6282 16.1615 19.9001 16.1557C19.4376 16.1615 18.9716 16.1811 18.5137 16.0968C18.8968 16.0379 19.3168 16.1061 19.6746 15.9352C20.2521 15.5206 20.6583 14.9191 21.1806 14.4422C21.5212 14.1328 21.8629 13.8222 22.1655 13.4735C22.6085 12.9574 23.1573 12.5463 23.6037 12.0325C24.0823 11.4725 24.6806 11.0314 25.1569 10.4703C25.5941 9.94836 26.1521 9.5477 26.5974 9.03389C27.1324 8.415 27.7825 7.91042 28.3232 7.29615C29.5566 6.05607 30.8049 4.83331 32.0176 3.57129Z" fill="white"/>
<path d="M5.3274 10.6645C9.18748 8.30208 13.1051 6.03437 17.0595 3.83594C17.0584 3.96295 17.0584 4.10266 16.9445 4.18695C11.7244 9.41515 6.51476 14.6549 1.29588 19.8854C0.889742 20.278 0.521568 20.7145 0.0625 21.0493C0.087812 19.4547 0.143038 17.8625 0.214372 16.2691C0.289157 15.5093 0.258093 14.7276 0.46404 13.9875C0.687246 13.7058 0.993291 13.506 1.27633 13.2913C2.58795 12.3572 3.9594 11.512 5.3274 10.6645Z" fill="white"/>
<path d="M39.0769 7.5708C40.0836 8.15736 41.088 8.75084 42.0878 9.3501C37.6387 15.7895 33.1838 22.2266 28.7266 28.6614C28.745 24.5394 28.7128 20.4162 28.7427 16.2941L28.8301 16.3287C28.9578 17.1993 28.768 18.0884 28.9452 18.9544C29.0246 18.526 28.9095 18.048 29.0832 17.6462C30.0359 16.6416 31.0438 15.6868 32.0114 14.6949C34.3573 12.3106 36.7574 9.98053 39.0769 7.5708Z" fill="white"/>
<path d="M31.0668 39.7139C37.0474 31.1234 43.0325 22.5352 49.0291 13.9551C49.2086 14.4631 49.1948 15.0116 49.2604 15.5404C49.4399 18.2804 49.4997 21.0261 49.5434 23.7707C49.571 26.5095 49.6102 29.2483 49.571 31.9871C49.5423 34.9695 49.5273 37.9566 49.2615 40.9298C49.1741 41.3651 49.2316 41.9089 48.852 42.2195C48.3192 42.6987 47.7129 43.0855 47.1227 43.4873C45.0264 44.8682 42.8691 46.1533 40.7084 47.4292C36.6182 49.8262 32.4935 52.1655 28.2975 54.3721C27.1688 54.9448 26.0527 55.5602 24.8631 56.0001H24.7262C21.9073 54.5233 19.1265 52.975 16.3398 51.4381C16.8852 50.9705 17.4052 50.4729 17.8873 49.9394C18.3418 49.4325 18.8964 49.0272 19.3382 48.5077C19.6235 48.1774 19.9376 47.8726 20.2667 47.5863C20.7177 47.1937 21.064 46.696 21.5184 46.3069C22.1317 45.8058 22.5873 45.143 23.2005 44.6419C23.7678 44.1327 24.2176 43.5058 24.8171 43.0289C25.3037 42.5566 25.7214 42.0163 26.2495 41.5844C26.8501 41.0764 27.2631 40.3386 27.9707 39.9668C29.0119 39.8398 30.0774 40.0476 31.1117 39.8744C31.1002 39.834 31.0772 39.7543 31.0668 39.7139Z" fill="white"/>
<path d="M28.7167 16.292L28.7443 16.2943C28.7144 20.4164 28.7466 24.5396 28.7282 28.6616C26.1027 32.3426 23.4852 36.0305 20.847 39.7023C20.8182 39.7035 20.7607 39.7046 20.7319 39.7058C20.6894 35.9047 20.7078 32.0978 20.7009 28.2945C20.679 28.0658 20.7826 27.8095 20.6641 27.6028C23.3483 23.8329 26.0544 20.0757 28.7167 16.292Z" fill="white"/>
<path d="M215.386 18.2292C217.585 16.869 220.245 16.3402 222.804 16.6069C225.035 16.8702 227.184 17.7812 228.945 19.1795C229.254 19.4693 229.661 19.706 229.863 20.0812C229.924 20.0951 230.047 20.1228 230.109 20.1355V20.2741C229.849 20.4184 229.718 20.759 229.499 20.9715C228.749 21.9252 227.982 22.8639 227.242 23.8246C225.82 22.0314 223.573 20.7694 221.246 20.9161C219.265 20.9969 217.377 22.1065 216.281 23.7553C215.028 25.5923 214.772 28.0148 215.43 30.1197C213.713 30.1485 211.995 30.122 210.277 30.1266C209.889 27.8728 210.062 25.4907 210.955 23.372C211.844 21.2463 213.412 19.4116 215.386 18.2292Z" fill="white"/>
<path d="M190.924 16.8933C196.932 16.8841 202.945 16.8944 208.956 16.8887C208.954 18.2985 208.957 19.7083 208.956 21.1193C206.753 21.1135 204.551 21.1204 202.349 21.1147C202.178 21.5188 202.259 21.9679 202.248 22.394C202.246 24.9273 202.26 27.4629 202.229 29.9973C200.65 30.0562 199.068 29.9881 197.487 30.0158C197.485 27.0483 197.49 24.0821 197.483 21.1147C195.297 21.1054 193.098 21.1412 190.922 21.0973C190.928 19.6956 190.924 18.295 190.924 16.8933Z" fill="white"/>
<path d="M156.327 16.8495L156.327 16.8493L156.319 16.8469C153.782 16.1485 150.963 16.0848 148.467 17.1005C146.625 17.8398 145.08 19.5011 144.774 21.5416L144.774 21.5416L144.773 21.5457C144.59 22.8932 144.694 24.3943 145.446 25.6267L145.446 25.6268L145.451 25.6338C146.015 26.5017 146.783 27.2476 147.699 27.7515L147.699 27.7516L147.706 27.7551C148.769 28.3053 149.888 28.694 150.999 29.0525C151.212 29.1211 151.424 29.1886 151.636 29.2558C152.536 29.5418 153.423 29.8238 154.285 30.1751L154.285 30.1751L154.292 30.1777C155.02 30.4541 155.675 30.9256 156.162 31.5334C156.597 32.1167 156.694 32.922 156.553 33.6741C156.423 34.3361 155.952 34.9022 155.353 35.2662L155.353 35.2661L155.348 35.2691C154.478 35.8193 153.405 35.9768 152.333 35.9916C150.661 36.0058 149.025 35.4287 147.54 34.6126C146.705 34.1259 145.922 33.5553 145.294 32.847L145.004 32.5198L144.803 32.908C144.613 33.2751 144.431 33.6387 144.25 34.0001C143.989 34.5197 143.731 35.035 143.454 35.5505L143.347 35.7516L143.511 35.9092C146.316 38.59 150.368 39.9582 154.223 39.3195C156.054 39.0191 157.929 38.2304 159.171 36.7329C160.089 35.6338 160.513 34.1927 160.489 32.7923C160.477 31.679 160.251 30.4901 159.571 29.5238L159.571 29.5237L159.567 29.5181C158.864 28.5661 157.915 27.7844 156.811 27.3273C155.84 26.8953 154.838 26.5551 153.848 26.2241C153.791 26.2053 153.735 26.1865 153.679 26.1677C152.741 25.8546 151.817 25.5457 150.919 25.1673L150.918 25.1669C150.111 24.8303 149.366 24.3311 148.909 23.6258C148.424 22.7449 148.475 21.542 149.178 20.8633L149.178 20.8634L149.181 20.8608C149.785 20.2638 150.657 19.9936 151.547 19.888C153.935 19.6558 156.349 20.4397 158.364 21.7586L158.66 21.9525L158.803 21.6286C159.205 20.717 159.605 19.8111 160.039 18.9222L160.151 18.6915L159.94 18.5447C158.837 17.7748 157.591 17.2389 156.327 16.8495Z" fill="white" stroke="white" strokeWidth="0.6"/>
<path d="M67.147 16.5791L66.8358 16.5673L66.8355 16.8786C66.8286 24.2499 66.824 31.6214 66.8378 38.9931L66.8384 39.3043L67.1494 39.2923C67.6163 39.2743 68.0851 39.2778 68.5617 39.2813L68.6202 39.2817C69.1144 39.2853 69.6169 39.288 70.1191 39.2645L70.4061 39.2511L70.4051 38.9638C70.3961 36.3393 70.3978 33.7101 70.3996 31.0803C70.4015 28.3278 70.4034 25.5746 70.3929 22.8253C70.4542 22.9158 70.521 23.0083 70.5939 23.094C72.0981 25.1805 73.6015 27.2678 75.105 29.3552C77.4593 32.6239 79.8138 35.8928 82.1715 39.1589L82.2637 39.2865L82.421 39.2833C82.8027 39.2753 83.1993 39.2783 83.6009 39.2814C84.21 39.2861 84.8303 39.2908 85.4264 39.2574L85.7104 39.2416L85.7097 38.9571C85.6988 34.8687 85.7004 30.782 85.7019 26.6947C85.7032 23.4245 85.7044 20.154 85.6993 16.8819L85.6988 16.5788L85.3958 16.5824C84.4205 16.5939 83.4467 16.5974 82.475 16.5813L82.1705 16.5762L82.17 16.8807C82.1613 22.2796 82.1577 27.6797 82.1691 33.0791C82.1667 33.0754 82.1642 33.0718 82.1617 33.0682C82.043 32.8936 81.9165 32.7078 81.7782 32.5344C80.37 30.5827 78.9628 28.6299 77.5555 26.6769C75.1657 23.3605 72.7757 20.0438 70.3804 16.732L70.296 16.6153L70.1523 16.6081C69.6461 16.5828 69.1372 16.5853 68.6363 16.589C68.6088 16.5892 68.5813 16.5894 68.5539 16.5896C68.0787 16.5933 67.6112 16.5968 67.147 16.5791Z" fill="white" stroke="white" strokeWidth="0.6"/>
<path d="M91.2878 16.5801L90.9872 16.579L90.9868 16.8796C90.9764 24.2489 90.9776 31.6203 90.9856 38.9894L90.986 39.2899L91.2864 39.2891C96.3955 39.2752 101.505 39.2752 106.614 39.2891L106.918 39.2899L106.914 38.9857C106.911 38.6938 106.916 38.391 106.92 38.0833C106.929 37.4541 106.939 36.8044 106.883 36.1842L106.859 35.909L106.582 35.911C104.315 35.9276 102.054 35.9252 99.7904 35.9228C98.0445 35.9209 96.2978 35.9191 94.547 35.9259C94.5415 34.4648 94.5427 33.0034 94.5439 31.5415C94.5445 30.8597 94.5451 30.1779 94.5449 29.4959C95.8869 29.4931 97.2313 29.4943 98.5762 29.4956C100.718 29.4975 102.862 29.4995 104.999 29.485L105.297 29.483L105.297 29.1843C105.296 28.7724 105.296 28.3578 105.296 27.9426C105.296 27.4436 105.296 26.9436 105.294 26.4463L105.293 26.1472L104.994 26.1474C101.514 26.1496 98.0313 26.1497 94.5491 26.1486C94.5397 24.0781 94.5405 22.0075 94.5483 19.9376C96.444 19.9458 98.3399 19.9442 100.235 19.9425L100.235 19.9425C102.231 19.9408 104.225 19.9391 106.219 19.9489L106.495 19.9502L106.52 19.6758C106.574 19.0679 106.565 18.4286 106.556 17.8096C106.551 17.4932 106.547 17.182 106.551 16.883L106.555 16.5777L106.25 16.5789C101.263 16.5985 96.2748 16.5974 91.2878 16.5801Z" fill="white" stroke="white" strokeWidth="0.6"/>
<path d="M110.012 16.5836L109.592 16.5781L109.723 16.9771C112.141 24.3472 114.564 31.7175 117.001 39.0822L117.07 39.2907L117.29 39.2879C118.296 39.2752 119.304 39.2775 120.312 39.2868L120.532 39.2888L120.6 39.0786C121.205 37.1975 121.79 35.3054 122.375 33.4151C122.775 32.1199 123.175 30.8255 123.582 29.5361L123.582 29.5333C123.925 28.4065 124.279 27.2791 124.633 26.1502C125.091 24.6887 125.55 23.2249 125.987 21.7574C126.005 21.8143 126.022 21.871 126.04 21.9273C126.098 22.1151 126.155 22.2993 126.206 22.477L126.205 22.477L126.207 22.4829C126.929 24.8278 127.646 27.1757 128.362 29.524C129.334 32.7112 130.307 35.8989 131.294 39.0803L131.361 39.2962L131.587 39.2913C132.338 39.2752 133.088 39.2785 133.843 39.2818C134.113 39.283 134.383 39.2842 134.653 39.2845L134.87 39.2847L134.938 39.0788C135.78 36.5366 136.619 33.9937 137.458 31.4509C139.045 26.6402 140.632 21.83 142.24 17.0261L142.307 16.8246L142.139 16.6941L142.073 16.6422L141.988 16.5765L141.881 16.579C141.086 16.5972 140.29 16.593 139.49 16.5888C139.283 16.5877 139.076 16.5866 138.868 16.5858L138.644 16.5851L138.58 16.7992C137.821 19.3137 137.065 21.8281 136.309 24.3422C135.443 27.2234 134.577 30.1043 133.707 32.9849L133.707 32.9848L133.705 32.993C133.616 33.3209 133.515 33.6442 133.411 33.9737C133.381 34.0695 133.351 34.1659 133.321 34.263C133.279 34.3999 133.237 34.5379 133.196 34.6771C131.477 28.9407 129.737 23.2108 127.996 17.4819L127.787 16.7917L127.721 16.5744L127.494 16.579C126.516 16.5985 125.537 16.5974 124.559 16.579L124.332 16.5747L124.266 16.7919C122.461 22.7499 120.668 28.7111 118.884 34.6753C118.799 34.3849 118.709 34.0959 118.62 33.81C118.515 33.4748 118.412 33.1439 118.32 32.8198L118.32 32.8198L118.319 32.8148C117.717 30.8293 117.117 28.8432 116.516 26.857C115.503 23.5043 114.489 20.1514 113.469 16.8008L113.404 16.5879L113.182 16.5881C112.927 16.5884 112.673 16.5891 112.418 16.5898C111.615 16.5919 110.814 16.594 110.012 16.5836Z" fill="white" stroke="white" strokeWidth="0.6"/>
<path d="M170.213 16.875C173.536 16.9096 176.86 16.8808 180.184 16.89C182.384 16.8889 184.77 17.3334 186.412 18.9164C187.804 20.2165 188.142 22.363 187.554 24.1273C187.049 25.6225 185.763 26.8534 184.222 27.2079C184.226 27.2356 184.234 27.291 184.237 27.3187C185.795 27.5716 187.196 28.5981 187.935 29.994C186.652 30.0517 185.368 30.0113 184.085 30.0217C183.455 30.0333 182.817 29.964 182.196 30.1025C181.284 29.6534 180.244 29.6545 179.251 29.6661C177.859 29.6672 176.466 29.6626 175.075 29.6684C174.998 29.7804 174.926 29.8936 174.853 30.0067C173.304 30.0425 171.751 30.0021 170.202 30.0194C170.209 25.6376 170.186 21.2557 170.213 16.875ZM175.071 20.9601C175.067 22.5685 175.069 24.1781 175.07 25.7865C176.542 25.7773 178.016 25.7854 179.49 25.783C180.308 25.8119 181.186 25.7403 181.881 25.2588C183.015 24.5106 183.153 22.6898 182.224 21.7268C181.688 21.191 180.911 20.9797 180.172 20.967C178.472 20.9624 176.771 20.9751 175.071 20.9601Z" fill="white"/>
<path d="M202.25 22.3941C202.261 21.968 202.18 21.5189 202.351 21.1147C202.359 27.0727 202.359 33.0306 202.351 38.9874C200.748 38.977 199.146 38.9736 197.543 38.9886L197.484 38.9528C197.495 35.9738 197.486 32.9948 197.489 30.0159C199.07 29.9881 200.652 30.0563 202.232 29.9974C202.263 27.463 202.248 24.9274 202.25 22.3941Z" fill="white"/>
<path d="M174.853 30.0068C174.926 29.8936 174.998 29.7805 175.075 29.6685C175.063 31.4143 175.072 33.1601 175.071 34.9071C176.732 34.9001 178.395 34.9082 180.056 34.9024C181.017 34.877 182.039 34.6796 182.784 34.0284C183.719 33.2363 183.845 31.6579 183.033 30.7365C182.801 30.4675 182.503 30.2689 182.196 30.1026C182.817 29.964 183.455 30.0333 184.085 30.0218C185.368 30.0114 186.652 30.0518 187.935 29.9941C189.023 32.1428 188.824 35.0641 187.045 36.788C185.437 38.3791 183.102 38.9252 180.91 38.9737C177.344 38.9979 173.779 38.9598 170.213 38.9933C170.186 36.0017 170.209 33.01 170.202 30.0195C171.751 30.0021 173.304 30.0426 174.853 30.0068Z" fill="white"/>
<path d="M210.277 30.1266C211.995 30.1219 213.713 30.1485 215.431 30.1196C215.708 30.9764 216.147 31.7823 216.725 32.4751C218.06 34.0893 220.213 34.9934 222.297 34.7382C224.183 34.5038 225.939 33.5073 227.24 32.1368C228.189 33.2025 229.131 34.2775 230.109 35.3155V35.3594C227.484 38.1317 223.564 39.8047 219.735 39.2182C217.182 38.8972 214.758 37.6409 213.02 35.7358C211.603 34.1759 210.644 32.2049 210.277 30.1266Z" fill="white"/>
<path d="M20.6624 27.603C20.7809 27.8097 20.6773 28.066 20.6992 28.2947C20.7061 32.098 20.6877 35.9049 20.7303 39.706C20.759 39.7048 20.8165 39.7036 20.8453 39.7025C24.2521 39.7117 27.66 39.6886 31.0668 39.714C31.0771 39.7545 31.1001 39.8341 31.1116 39.8745C30.0773 40.0477 29.0119 39.8399 27.9706 39.9669C27.263 40.3387 26.85 41.0765 26.2494 41.5846C25.7213 42.0164 25.3037 42.5568 24.817 43.029C24.2176 43.5059 23.7677 44.1328 23.2005 44.642C22.5872 45.1432 22.1316 45.8059 21.5184 46.307C21.0639 46.6961 20.7176 47.1938 20.2666 47.5864C19.9375 47.8727 19.6234 48.1775 19.3381 48.5078C18.8963 49.0274 18.3417 49.4326 17.8873 49.9395C17.4052 50.473 16.8851 50.9706 16.3398 51.4382C13.4059 49.809 10.4777 48.1672 7.57031 46.4918C11.9378 40.1978 16.3041 33.9039 20.6624 27.603Z" fill="white"/>
</g>
</g>
<defs>
<clipPath id="clip0_270_9840">
<rect width="230.109" height="56" fill="white"/>
</clipPath>
</defs>
</svg>
