<svg width="265" height="54" viewBox="0 0 265 54" fill="none" xmlns="http://www.w3.org/2000/svg">
<g>
<path d="M0.0150952 6.05268C10.4958 4.05163 20.9601 1.96803 31.4474 0C31.4739 17.95 31.4871 35.9033 31.4441 53.8534C29.4761 53.6354 27.5609 53.117 25.6259 52.7274C17.0967 50.9475 8.56744 49.1545 0.0382096 47.378C-0.0311338 33.6051 0.0150952 19.8256 0.0150952 6.05268ZM13.6625 17.9764C10.9251 19.0496 9.37315 21.9323 9.00001 24.7259C8.47498 28.0246 8.86793 31.7791 11.2223 34.3283C12.7611 36.0618 15.2904 36.7388 17.5094 36.1147C19.4576 35.6656 20.9634 34.1334 21.8715 32.4131C23.0635 30.0653 23.2319 27.3378 22.9149 24.7622C22.6243 22.4937 21.6667 20.2053 19.8407 18.7491C18.1236 17.3854 15.6735 17.2434 13.6625 17.9764Z" fill="white"/>
<path d="M164.517 4.86063C166.056 4.85733 167.595 4.86063 169.13 4.84082C168.896 9.38776 169.18 13.9347 169.094 18.4816C168.883 23.6527 169.276 28.827 169.048 33.998C168.932 38.3039 169.309 42.6164 169.002 46.9157C167.512 46.9388 166.026 46.9322 164.537 46.9388C164.488 32.9117 164.527 18.8878 164.517 4.86063Z" fill="white"/>
<path d="M240.63 46.9024C240.557 32.8818 240.63 18.858 240.594 4.8374C242.109 4.85061 243.625 4.84401 245.141 4.85391C245.19 13.7596 245.134 22.6619 245.164 31.5643C248.773 27.6613 252.379 23.7516 255.945 19.809C256.361 19.3797 256.734 18.8976 257.233 18.5575C259.211 18.5245 261.192 18.4353 263.173 18.4155C258.828 23.0252 254.406 27.5655 250.005 32.1257C254.667 37.0887 259.429 41.9559 264.194 46.8198C262.093 46.6944 259.997 47.0708 257.903 46.876C253.574 42.3951 249.456 37.6962 245.18 33.1559C245.16 37.7458 245.144 42.3356 245.151 46.9288C243.642 46.9255 242.136 46.942 240.63 46.9024Z" fill="white"/>
<path d="M87.5557 6.63042C91.9573 6.10539 96.6661 6.68986 100.444 9.1466C104.664 11.8906 107.533 16.5168 108.352 21.4633C109.376 27.2947 108.841 33.6149 105.879 38.8321C103.313 43.4253 98.4855 46.6118 93.2815 47.2821C89.5105 47.7015 85.548 47.6156 82.0247 46.0604C76.3749 43.6697 72.4487 38.0265 71.5803 32.02C70.626 26.0168 71.3128 19.4722 74.7239 14.311C77.5273 9.9523 82.4144 7.10592 87.5557 6.63042ZM86.6509 11.0783C83.6592 11.7849 81.0077 13.6539 79.2411 16.1536C76.8108 19.4589 75.9258 23.6658 76.1041 27.7108C76.1404 32.3865 77.7089 37.3231 81.4105 40.3874C84.2041 42.9003 88.1633 43.7126 91.8153 43.2272C95.1405 42.9333 98.403 41.3714 100.467 38.7067C102.765 35.9197 103.709 32.2809 103.874 28.7311C104.033 25.4588 103.828 22.1006 102.623 19.0198C101.636 16.3154 99.7667 13.8785 97.2538 12.4321C94.0938 10.5599 90.1775 10.2825 86.6509 11.0783Z" fill="white"/>
<path d="M146.839 11.5474C148.349 11.0454 149.864 10.5534 151.377 10.0449C151.396 12.8715 151.314 15.6981 151.383 18.5213C153.751 18.594 156.115 18.3661 158.483 18.409C158.542 19.7233 158.519 21.0375 158.506 22.3517C156.131 22.3418 153.757 22.3649 151.386 22.3517C151.347 27.886 151.36 33.4202 151.393 38.9512C151.429 40.4437 151.694 42.2268 153.08 43.0821C154.771 44.0859 156.94 43.7359 158.555 42.7486C158.469 44.043 158.7 45.3836 158.413 46.6549C156.125 47.6785 153.414 47.7083 151.04 46.9818C148.256 46.0143 146.882 42.9863 146.849 40.206C146.797 34.2524 146.823 28.2987 146.823 22.3484C145.192 22.3484 143.561 22.3451 141.929 22.3517C141.909 21.0342 141.9 19.7134 142.042 18.4024C143.63 18.4256 145.218 18.4124 146.81 18.4223C146.816 16.1306 146.803 13.839 146.839 11.5474Z" fill="white"/>
<path d="M33.4531 11.4087C39.4563 11.4846 45.4627 11.3493 51.4659 11.4483C52.615 11.4615 53.3249 12.5842 53.4934 13.6112C48.0582 17.1345 42.7616 20.8625 37.3364 24.399C36.0353 23.6197 34.7574 22.8008 33.4663 22.005C33.4465 18.4718 33.4729 14.9419 33.4531 11.4087Z" fill="white"/>
<path d="M186.073 18.0856C189.329 17.6629 192.8 17.7092 195.828 19.1258C199.311 20.7834 201.702 24.2803 202.412 28.0248C203.195 31.9708 203.119 36.2338 201.408 39.9387C199.82 43.4554 196.574 46.173 192.819 47.0744C189.673 47.8042 186.295 47.7018 183.247 46.6022C179.01 45.0536 175.992 41.0118 175.219 36.6333C174.602 32.7336 174.856 28.5829 176.58 24.9836C178.383 21.315 182.051 18.7229 186.073 18.0856ZM186.073 22.0415C184.171 22.5995 182.494 23.8675 181.444 25.5483C179.601 28.398 179.288 31.9906 179.773 35.2795C180.116 38.1258 181.606 40.9458 184.128 42.4251C186.833 43.9903 190.293 44.1422 193.156 42.9072C195.223 42.0091 196.696 40.0906 197.436 38.0004C198.317 35.4743 198.341 32.7336 198.043 30.1018C197.726 27.7871 196.904 25.3997 195.147 23.7784C192.737 21.5891 189.121 21.2028 186.073 22.0415Z" fill="white"/>
<path d="M218.139 18.0722C221.679 17.6199 225.529 17.7189 228.653 19.6539C232.299 21.7639 234.254 25.9212 234.62 30.0026C234.841 33.0504 234.785 36.2204 233.643 39.0998C232.361 42.3787 229.766 45.1888 226.461 46.4766C223.568 47.6488 220.329 47.6851 217.281 47.2328C212.447 46.3907 208.478 42.4316 207.335 37.703C206.44 33.8594 206.612 29.7087 208.009 26.0038C209.643 21.7805 213.665 18.6897 218.139 18.0722ZM218.711 21.8663C216.561 22.289 214.623 23.6098 213.394 25.416C211.975 27.5492 211.469 30.1644 211.456 32.6938C211.4 35.3519 211.955 38.1587 213.632 40.2918C216.961 44.8718 224.909 44.9345 228.171 40.2522C229.839 37.7492 230.166 34.6255 230.073 31.6899C229.961 28.7874 229.122 25.7066 226.913 23.689C224.73 21.6913 221.517 21.3017 218.711 21.8663Z" fill="white"/>
<path d="M38.4414 27.8531C43.4308 24.5048 48.4301 21.1763 53.446 17.8677C53.446 24.343 53.4691 30.8217 53.4427 37.297C53.4724 38.4626 52.8648 39.7405 51.686 40.1005C50.0118 40.5958 48.2551 40.1104 46.548 40.2293C42.1826 40.3118 37.8206 40.4076 33.4586 40.216C33.4322 35.4446 33.4718 30.6698 33.4553 25.895C34.5681 26.6776 35.6479 27.5163 36.8267 28.1998C37.3781 28.5499 37.9824 28.1734 38.4414 27.8531Z" fill="white"/>
<path d="M114.005 18.5446C115.481 18.4554 116.96 18.3993 118.443 18.396C118.555 23.9203 118.463 29.448 118.496 34.9724C118.585 37.3796 118.905 40.008 120.602 41.8638C122.425 43.8252 125.466 44.1158 127.907 43.3167C131.136 42.1279 133.074 38.6409 133.015 35.2894C132.975 29.6659 133.058 24.0392 133.005 18.4158C134.531 18.3861 136.053 18.5182 137.578 18.538C137.559 28.0182 137.654 37.4984 137.526 46.9754C136.026 46.8895 134.527 46.7904 133.025 46.8003C132.992 45.2913 132.995 43.7823 132.995 42.2732C131.635 44.9083 129.092 47.0051 126.097 47.3815C122.96 47.7414 119.4 47.3848 117.046 45.0635C114.712 42.6893 114.058 39.1858 114.012 35.9729C114.002 30.1646 113.995 24.3529 114.005 18.5446Z" fill="white"/>
<path d="M14.6884 21.3609C15.7781 20.826 17.1914 21.0109 18.0532 21.8826C19.057 22.8964 19.4203 24.3559 19.5722 25.7328C19.6811 27.6315 19.6085 29.6986 18.5353 31.343C17.7957 32.5054 16.2569 33.1228 14.9394 32.654C13.5492 32.1322 12.7963 30.6859 12.4727 29.3189C12.1953 27.7669 12.202 26.1555 12.4925 24.6068C12.8128 23.3289 13.4435 21.9586 14.6884 21.3609Z" fill="white"/>
</g>
</svg>
