<svg width="207" height="77" viewBox="0 0 207 77" fill="none" xmlns="http://www.w3.org/2000/svg">
<g>
<path d="M74.0826 45.7915C74.0699 30.5372 74.0731 15.2829 74.0826 0.0317383C77.8011 0.050846 81.5197 0.0540306 85.2414 0.0317383C85.2445 5.68443 85.2255 11.3371 85.2509 16.993C87.1562 14.8943 89.8078 13.3689 92.6975 13.3625C95.565 13.1205 98.604 13.9071 100.722 15.9325C103.37 18.3496 104.39 22.0725 104.368 25.5692C104.422 32.311 104.387 39.0528 104.387 45.7947C100.646 45.7851 96.9051 45.7883 93.1643 45.7915C93.1643 39.8012 93.1992 33.811 93.1103 27.8239C93.0881 26.3398 92.472 24.6488 91.0113 24.0374C89.6807 23.5119 87.9723 23.566 86.8799 24.5851C85.8161 25.5501 85.4097 27.0373 85.3462 28.4321C85.2795 34.2186 85.3239 40.005 85.2985 45.7947C81.5609 45.7851 77.8202 45.7915 74.0826 45.7915Z" fill="white"/>
<path d="M193.116 0.66254C193.252 0.366371 193.376 -0.155906 193.862 0.0447243C198.124 0.0670166 202.388 -0.0125998 206.65 0.108416C202.754 9.68455 198.778 19.2288 194.837 28.7827C190.398 28.8591 185.955 28.7986 181.516 28.8145C185.374 19.4263 189.245 10.0444 193.116 0.66254Z" fill="white"/>
<path d="M40.4774 18.0985C43.2115 15.0603 47.273 13.1528 51.3853 13.3629C54.4592 13.3152 57.5966 14.5954 59.6131 16.9552C59.6099 15.9902 59.6226 15.0221 59.6131 14.054C63.2173 14.0731 66.8215 14.0635 70.4289 14.0572C70.4734 24.6365 70.4892 35.2158 70.4289 45.7919C66.8215 45.7823 63.2141 45.7982 59.6099 45.7855C59.6162 44.8524 59.6131 43.9193 59.6162 42.9862C57.5268 45.4352 54.2814 46.7759 51.0805 46.5657C46.8507 46.7791 42.713 44.6804 40.0265 41.4608C34.5423 34.9483 34.7043 24.3785 40.4774 18.0985ZM51.7759 23.7002C50.1151 24.0919 48.6353 25.1874 47.7557 26.6492C46.3648 29.0663 46.6411 32.4229 48.6321 34.4292C50.7089 36.703 54.456 37.0915 56.9901 35.3718C58.8351 34.1648 59.9433 31.9356 59.8036 29.7287C59.8068 27.3402 58.2603 25.076 56.1136 24.0919C54.7609 23.5091 53.2112 23.3626 51.7759 23.7002Z" fill="white"/>
<path d="M119.806 13.6815C123.594 12.9681 127.652 13.2707 131.161 14.9553C135.099 16.7801 138.249 20.2609 139.608 24.4009C141.342 29.5918 140.58 35.6808 137.242 40.0724C134.276 44.0691 129.389 46.5021 124.439 46.6009C120.145 46.8429 115.731 45.5308 112.435 42.7252C109.238 40.066 107.192 36.1075 106.776 31.9707C106.221 27.2288 107.666 22.2322 110.911 18.7004C113.229 16.1145 116.436 14.4235 119.806 13.6815ZM121.733 23.9073C119.101 24.6206 117.256 27.3021 117.354 30.009C117.253 32.7733 119.234 35.4292 121.901 36.1203C123.87 36.5215 126.106 36.27 127.64 34.8624C130.32 32.6427 130.583 28.1524 128.195 25.6302C126.623 23.8372 123.978 23.2321 121.733 23.9073Z" fill="white"/>
<path d="M156.56 13.4934C160.456 12.9998 164.562 13.5603 167.988 15.5634C172.043 17.8181 174.987 21.9294 175.835 26.4993C176.988 31.996 175.321 38.0659 171.246 41.9734C165.248 47.8426 154.877 48.1961 148.376 42.9638C144.623 39.9512 142.355 35.1806 142.365 30.3623C142.216 25.9389 143.829 21.3976 147.004 18.2799C149.526 15.6621 152.978 13.9997 156.56 13.4934ZM157.303 23.9294C154.842 24.6937 153.009 27.1203 153.038 29.719C152.806 32.5437 154.765 35.3494 157.487 36.0946C159.459 36.5309 161.71 36.3016 163.266 34.9004C165.832 32.8113 166.226 28.6872 164.244 26.0694C162.704 23.958 159.754 23.1459 157.303 23.9294Z" fill="white"/>
<path d="M0 14.0859C4.07102 14.0763 8.14838 13.9935 12.2162 14.1655C14.5312 20.3023 16.9541 26.3976 19.3357 32.5089C21.8095 26.4135 24.2006 20.2832 26.5791 14.1496C30.5263 14.0031 34.4798 14.0795 38.427 14.0827C32.6031 28.6396 26.4616 43.0723 20.5393 57.5877C16.5572 57.5654 12.5782 57.6514 8.59931 57.5941C10.095 53.9891 11.6288 50.3969 13.1339 46.7919C13.3277 46.3747 13.4451 45.8938 13.1879 45.4798C8.82159 35.0024 4.34094 24.5728 0 14.0859Z" fill="white"/>
<path d="M183.556 31.6584C185.887 31.1934 188.44 31.8972 190.151 33.5723C193.041 36.3143 193.009 41.5275 190.056 44.2185C187.297 47.1675 182.025 47.0974 179.386 44.0243C177.145 41.6453 176.922 37.7442 178.672 35.0245C179.745 33.2857 181.571 32.0788 183.556 31.6584Z" fill="white"/>
<path d="M78.464 51.1354C80.7663 48.6259 84.6595 48.2724 87.7397 49.3393C87.7365 51.1641 87.727 52.9888 87.7461 54.8168C86.5203 54.4665 85.0659 54.1671 83.9577 54.9856C83.1733 55.5779 83.1479 56.632 82.9955 57.5174C84.4975 57.5333 85.9995 57.5174 87.5047 57.5269C87.4793 59.3167 87.4857 61.1064 87.4476 62.8994C85.9709 62.8898 84.4943 62.8866 83.0209 62.9471C83.0526 67.1413 83.0304 71.3354 83.0336 75.5295C80.8647 75.555 78.6958 75.5296 76.5269 75.5359C76.5079 71.3322 76.5111 67.1317 76.5269 62.928C75.7267 62.9089 74.9265 62.893 74.1294 62.8834C74.085 61.0937 74.0977 59.3039 74.0723 57.5142C74.8598 57.5174 75.6505 57.5237 76.4412 57.5365C76.4857 55.2722 76.8635 52.8583 78.464 51.1354Z" fill="white"/>
<path d="M91.2386 49.0336C93.2265 47.9381 95.9574 49.1164 96.5227 51.3106C97.2276 53.5017 95.3001 56.0716 92.9915 55.8806C91.0576 56.0366 89.2603 54.2564 89.273 52.3361C89.2317 50.9763 90.0573 49.6706 91.2386 49.0336Z" fill="white"/>
<path d="M105.546 59.4568C107.601 56.39 112.605 56.1926 114.958 58.9887C116.216 60.3644 116.629 62.2848 116.625 64.1032C116.689 67.912 116.651 71.724 116.648 75.5328C114.447 75.5296 112.246 75.5614 110.049 75.5137C110.055 72.2367 110.052 68.9597 109.989 65.6859C110.106 64.4662 109.334 63.065 107.985 63.0714C106.527 62.8994 105.543 64.3707 105.59 65.6955C105.489 68.9756 105.571 72.2622 105.54 75.5423C103.333 75.5232 101.129 75.5455 98.9219 75.5391C98.9568 69.5329 98.9473 63.5299 98.9282 57.5238C101.129 57.5142 103.333 57.5429 105.536 57.5078C105.536 58.1575 105.54 58.804 105.546 59.4568Z" fill="white"/>
<path d="M121.742 58.8456C124.613 56.3839 129.472 56.3202 131.996 59.3233C131.987 58.7214 131.977 58.1195 131.974 57.5208C134.155 57.524 136.34 57.5272 138.525 57.5208C138.512 63.527 138.512 69.5332 138.525 75.5394C136.34 75.5234 134.152 75.5553 131.968 75.5235C131.977 74.9375 131.99 74.3547 131.999 73.7719C130.739 75.2018 128.903 76.0839 126.985 76.0457C123.911 76.205 120.936 74.3101 119.57 71.5841C117.436 67.5046 118.122 61.8646 121.742 58.8456ZM126.766 63.3805C125.817 63.9283 125.058 64.8773 124.902 65.9855C124.483 68.1256 126.41 70.323 128.592 70.1032C130.812 70.186 132.66 67.8071 132.009 65.6671C131.523 63.4378 128.735 62.2723 126.766 63.3805Z" fill="white"/>
<path d="M147.782 59.3805C149.973 56.336 155.029 56.2086 157.338 59.1608C158.17 60.2977 158.744 61.6894 158.744 63.1161C158.824 67.2593 158.776 71.4024 158.833 75.5424C156.626 75.5265 154.416 75.5456 152.209 75.5361C152.177 72.0362 152.26 68.5331 152.111 65.0396C152.171 63.425 150.04 62.5174 148.811 63.4377C147.852 64.0587 147.808 65.2975 147.789 66.3262C147.76 69.3929 147.792 72.4629 147.77 75.5297C145.54 75.5392 143.311 75.5424 141.082 75.5297C141.104 69.5362 141.114 63.5428 141.126 57.5494C143.337 57.5557 145.55 57.5207 147.763 57.5111C147.77 58.1321 147.776 58.7563 147.782 59.3805Z" fill="white"/>
<path d="M166.099 57.8519C168.751 56.6736 171.838 56.8296 174.496 57.9028C174.492 59.9187 174.521 61.9346 174.451 63.9504C172.806 63.0428 170.72 62.5747 168.999 63.5619C166.998 64.5587 166.684 67.6541 168.376 69.0904C170.066 70.5935 172.733 70.2273 174.483 69.0076C174.496 71.0426 174.448 73.0775 174.461 75.1157C172.527 76.0424 170.339 76.1602 168.24 75.8991C165.226 75.4405 162.441 73.3832 161.314 70.5139C160.593 68.842 160.517 66.979 160.653 65.1861C160.993 62.0046 163.127 59.0588 166.099 57.8519Z" fill="white"/>
<path d="M178.463 59.6861C182.163 55.9855 189.092 56.1034 192.388 60.288C194.211 62.4599 194.605 65.4056 194.44 68.1508C190.295 68.2718 186.148 68.0903 182.011 68.2973C182.296 69.3036 182.893 70.2876 183.941 70.6284C185.472 71.3004 187.228 70.6634 188.273 69.4405C190.156 70.1443 192.039 70.8481 193.893 71.6316C192.287 74.2302 189.387 75.9212 186.336 75.9881C183.757 76.211 181.01 75.7556 178.949 74.0933C174.669 70.673 174.539 63.4312 178.463 59.6861ZM182.03 64.2528C184.03 64.6795 186.107 64.3643 188.139 64.4471C187.923 63.8006 187.711 63.1063 187.12 62.7019C185.446 61.4057 182.636 62.1478 182.03 64.2528Z" fill="white"/>
<path d="M89.687 57.5239C91.8845 57.5239 94.0819 57.5207 96.2794 57.5239C96.2794 63.5269 96.2985 69.5331 96.2699 75.5361C94.0692 75.5297 91.8686 75.5552 89.668 75.5233C89.7029 69.5235 89.668 63.5237 89.687 57.5239Z" fill="white"/>
</g>
</svg>
